# xmcd
#
# Track frame offsets: 
#        150
#        13587
#        26015
#        39910
#        51982
#        66122
#        78992
#        93530
#        105205
#        118932
#        131682
#        143252
#        154145
#        168000
#        180975
#        192155
#        204147
#        218505
#        231965
#        245180
#
# Disc length: 3429 seconds
#
# Revision: 2
# Processed by: cddbd v1.5.2PL0 Copyright (c) Steve Scherf et al.
# Submitted via: ExactAudioCopy v0.99pb5
#
DISCID=fe0d6314
DTITLE=Roosevelt Sykes - Raining In My Heart
DYEAR=2000
DGENRE=Blues
TTITLE0=Fine And Brown (alternate)
TTITLE1=Lucky Blues
TTITLE2=Raining In My Heart 
TTITLE3=Heavy Heart
TTITLE4=4:00 Blues
TTITLE5=Too Hot To Handle (Hot Boogie)
TTITLE6=Tell Me True
TTITLE7=Ruthie Lee
TTITLE8=Something Like That
TTITLE9=Security Blues
TTITLE10=Boogie Sykes
TTITLE11=Listen To My Song (She's The One For Me)
TTITLE12=Toy Piano Blues
TTITLE13=Been Through The Mill
TTITLE14=Walkin' This Boogie
TTITLE15=Come Back Baby
TTITLE16=44 Blues
TTITLE17=4:00 Blues (alternate)
TTITLE18=Fine And Brown
TTITLE19=Listen To My Song (She's The One For Me) (alternate)
EXTD=YEAR: 2000 ID3G:   0
EXTT0=
EXTT1=
EXTT2=
EXTT3=
EXTT4=
EXTT5=
EXTT6=
EXTT7=
EXTT8=
EXTT9=
EXTT10=
EXTT11=
EXTT12=
EXTT13=
EXTT14=
EXTT15=
EXTT16=
EXTT17=
EXTT18=
EXTT19=
PLAYORDER=
